<?xml version="1.0" standalone="no"?>
<!DOCTYPE svg PUBLIC "-//W3C//DTD SVG 20010904//EN"
 "http://www.w3.org/TR/2001/REC-SVG-20010904/DTD/svg10.dtd">
<svg version="1.0" xmlns="http://www.w3.org/2000/svg"
 width="640.000000pt" height="640.000000pt" viewBox="0 0 640.000000 640.000000"
 preserveAspectRatio="xMidYMid meet">

<g transform="translate(0.000000,640.000000) scale(0.100000,-0.100000)"
fill="#000000" stroke="none">
<path d="M2810 4686 c-217 -116 -521 -278 -675 -360 -154 -81 -281 -149 -282
-150 -2 -1 -45 -133 -97 -292 -153 -471 -223 -687 -296 -906 l-68 -208 132
-94 c72 -52 253 -183 401 -290 149 -108 320 -232 380 -275 118 -85 213 -154
486 -352 96 -69 232 -167 302 -218 l128 -92 732 532 c1186 863 1089 789 1084
819 -2 14 -56 185 -120 380 -63 195 -162 499 -219 674 l-103 319 -40 24 c-36
22 -181 99 -510 273 -66 34 -147 77 -180 95 -344 185 -635 335 -646 334 -8 -1
-192 -96 -409 -213z m518 -47 c53 -29 124 -66 157 -84 33 -18 116 -62 185 -98
69 -36 269 -142 445 -235 l320 -170 51 -153 c29 -85 102 -309 164 -499 61
-190 126 -391 145 -448 l34 -103 -72 -52 c-186 -136 -1041 -758 -1274 -927
l-262 -191 -273 197 c-150 109 -336 243 -413 299 -77 56 -207 150 -290 210
-82 59 -200 145 -261 189 -60 45 -167 122 -237 171 -69 50 -127 97 -127 105 0
13 54 181 306 955 42 127 81 235 87 241 7 6 215 119 462 250 248 131 515 273
595 316 80 42 149 77 153 78 4 0 51 -23 105 -51z"/>
<path d="M3050 4394 c-36 -19 -139 -74 -230 -121 -91 -47 -170 -91 -176 -97
-13 -12 -32 -69 -64 -193 -12 -46 -26 -83 -31 -83 -5 0 -9 5 -9 11 0 7 -14 50
-32 95 l-31 84 -126 -67 c-215 -113 -184 -73 -278 -359 -45 -137 -118 -361
-163 -499 l-81 -250 23 -19 c39 -31 657 -477 664 -479 4 -1 9 114 11 255 l4
256 -101 72 c-55 40 -100 75 -100 78 0 26 158 484 163 472 3 -8 20 -70 38
-137 18 -68 35 -123 38 -123 3 0 35 96 71 213 l65 212 5 -723 5 -722 105 -76
c58 -42 148 -107 201 -145 53 -38 99 -69 103 -69 3 0 6 551 6 1225 0 674 -3
1225 -7 1225 -5 0 -37 -16 -73 -36z"/>
<path d="M3319 4429 c0 -2 -3 -555 -6 -1228 -5 -1066 -4 -1224 9 -1219 7 3
105 72 216 153 l202 146 0 260 0 259 358 0 358 0 75 55 c41 31 75 60 77 65 2
5 -49 167 -112 362 -63 194 -134 415 -159 491 -24 76 -48 142 -53 147 -9 9
-922 496 -949 506 -8 4 -15 5 -16 3z m528 -752 l92 -48 61 -189 c33 -104 63
-196 66 -205 5 -13 -15 -15 -160 -15 l-166 0 0 256 c0 141 3 254 8 252 4 -1
48 -25 99 -51z"/>
</g>
</svg>
