<?xml version="1.0" encoding="iso-8859-1"?>
<!-- Generator: Adobe Illustrator 19.0.0, SVG Export Plug-In . SVG Version: 6.00 Build 0)  -->
<svg version="1.1" id="Layer_1" xmlns="http://www.w3.org/2000/svg" xmlns:xlink="http://www.w3.org/1999/xlink" x="0px" y="0px"
	 viewBox="0 0 460.001 460.001" style="enable-background:new 0 0 460.001 460.001;" xml:space="preserve">
<g id="XMLID_99_">
	<path id="XMLID_1023_" style="fill:#96C8EF;" d="M375.229,0H186.995c-15.655,0-28.346,12.691-28.346,28.347l-0.178,318.777H375.23
		c15.655,0,28.346-12.691,28.346-28.346V28.347C403.575,12.691,390.884,0,375.229,0z"/>
	<path id="XMLID_113_" style="opacity:0.1;enable-background:new    ;" d="M315.887,346.464V137.622
		c0-23.583-19.118-42.701-42.701-42.701H158.47v251.542L315.887,346.464L315.887,346.464z"/>
	<path id="XMLID_1024_" style="fill:#C2DFF6;" d="M301.352,141.223c0-15.655-12.691-28.347-28.346-28.347H84.771
		c-15.655,0-28.346,12.691-28.346,28.347v290.431c0,15.656,12.691,28.347,28.346,28.347h188.234
		c15.655,0,28.346-12.691,28.346-28.347L301.352,141.223L301.352,141.223z"/>
</g>
<g>
</g>
<g>
</g>
<g>
</g>
<g>
</g>
<g>
</g>
<g>
</g>
<g>
</g>
<g>
</g>
<g>
</g>
<g>
</g>
<g>
</g>
<g>
</g>
<g>
</g>
<g>
</g>
<g>
</g>
</svg>
